<?xml version="1.0" encoding="UTF-8" standalone="no"?>
<!DOCTYPE svg PUBLIC "-//W3C//DTD SVG 1.1//EN"
 "http://www.w3.org/Graphics/SVG/1.1/DTD/svg11.dtd">
<!-- Generated by graphviz version 2.26.3 (20100126.1600)
 -->
<!-- Title: G Pages: 1 -->
<svg width="478pt" height="786pt"
 viewBox="0.00 0.00 478.00 786.00" xmlns="http://www.w3.org/2000/svg" xmlns:xlink="http://www.w3.org/1999/xlink">
<g id="graph1" class="graph" transform="scale(1 1) rotate(0) translate(4 782)">
<title>G</title>
<polygon fill="white" stroke="white" points="-4,5 -4,-782 475,-782 475,5 -4,5"/>
<g id="graph2" class="cluster"><title>cluster_Global</title>
<polyline fill="none" stroke="gray" points="308,-8 450,-8 "/>
<path fill="none" stroke="gray" d="M450,-8C456,-8 462,-14 462,-20"/>
<polyline fill="none" stroke="gray" points="462,-20 462,-758 "/>
<path fill="none" stroke="gray" d="M462,-758C462,-764 456,-770 450,-770"/>
<polyline fill="none" stroke="gray" points="450,-770 308,-770 "/>
<path fill="none" stroke="gray" d="M308,-770C302,-770 296,-764 296,-758"/>
<polyline fill="none" stroke="gray" points="296,-758 296,-20 "/>
<path fill="none" stroke="gray" d="M296,-20C296,-14 302,-8 308,-8"/>
<text text-anchor="middle" x="379" y="-756.1" font-family="Times Roman,serif" font-size="11.00" fill="gray">\</text>
</g>
<g id="graph3" class="cluster"><title>cluster_\Fuel</title>
<polyline fill="none" stroke="gray" points="316,-438 442,-438 "/>
<path fill="none" stroke="gray" d="M442,-438C448,-438 454,-444 454,-450"/>
<polyline fill="none" stroke="gray" points="454,-450 454,-728 "/>
<path fill="none" stroke="gray" d="M454,-728C454,-734 448,-740 442,-740"/>
<polyline fill="none" stroke="gray" points="442,-740 316,-740 "/>
<path fill="none" stroke="gray" d="M316,-740C310,-740 304,-734 304,-728"/>
<polyline fill="none" stroke="gray" points="304,-728 304,-450 "/>
<path fill="none" stroke="gray" d="M304,-450C304,-444 310,-438 316,-438"/>
<text text-anchor="middle" x="379" y="-726.1" font-family="Times Roman,serif" font-size="11.00" fill="gray">Fuel</text>
</g>
<g id="graph4" class="cluster"><title>cluster_\Fuel\Tasks</title>
<polyline fill="none" stroke="gray" points="354,-636 404,-636 "/>
<path fill="none" stroke="gray" d="M404,-636C410,-636 416,-642 416,-648"/>
<polyline fill="none" stroke="gray" points="416,-648 416,-698 "/>
<path fill="none" stroke="gray" d="M416,-698C416,-704 410,-710 404,-710"/>
<polyline fill="none" stroke="gray" points="404,-710 354,-710 "/>
<path fill="none" stroke="gray" d="M354,-710C348,-710 342,-704 342,-698"/>
<polyline fill="none" stroke="gray" points="342,-698 342,-648 "/>
<path fill="none" stroke="gray" d="M342,-648C342,-642 348,-636 354,-636"/>
<text text-anchor="middle" x="379" y="-696.1" font-family="Times Roman,serif" font-size="11.00" fill="gray">Tasks</text>
</g>
<g id="graph5" class="cluster"><title>cluster_\Fuel\Migrations</title>
<polyline fill="none" stroke="gray" points="324,-446 434,-446 "/>
<path fill="none" stroke="gray" d="M434,-446C440,-446 446,-452 446,-458"/>
<polyline fill="none" stroke="gray" points="446,-458 446,-616 "/>
<path fill="none" stroke="gray" d="M446,-616C446,-622 440,-628 434,-628"/>
<polyline fill="none" stroke="gray" points="434,-628 324,-628 "/>
<path fill="none" stroke="gray" d="M324,-628C318,-628 312,-622 312,-616"/>
<polyline fill="none" stroke="gray" points="312,-616 312,-458 "/>
<path fill="none" stroke="gray" d="M312,-458C312,-452 318,-446 324,-446"/>
<text text-anchor="middle" x="379" y="-614.1" font-family="Times Roman,serif" font-size="11.00" fill="gray">Migrations</text>
</g>
<!-- \\Fuel\\Tasks\\Robots -->
<g id="node4" class="node"><title>\\Fuel\\Tasks\\Robots</title>
<polygon fill="none" stroke="black" points="407,-680 351,-680 351,-644 407,-644 407,-680"/>
<text text-anchor="middle" x="379" y="-659.1" font-family="Courier,monospace" font-size="11.00">Robots</text>
</g>
<!-- \\Fuel\\Migrations\\Create_messages -->
<g id="node6" class="node"><title>\\Fuel\\Migrations\\Create_messages</title>
<polygon fill="none" stroke="black" points="438,-598 320,-598 320,-562 438,-562 438,-598"/>
<text text-anchor="middle" x="379" y="-577.1" font-family="Courier,monospace" font-size="11.00">Create_messages</text>
</g>
<!-- \\Fuel\\Migrations\\Create_logins -->
<g id="node7" class="node"><title>\\Fuel\\Migrations\\Create_logins</title>
<polygon fill="none" stroke="black" points="431,-544 327,-544 327,-508 431,-508 431,-544"/>
<text text-anchor="middle" x="379" y="-523.1" font-family="Courier,monospace" font-size="11.00">Create_logins</text>
</g>
<!-- \\Fuel\\Migrations\\Create_users -->
<g id="node8" class="node"><title>\\Fuel\\Migrations\\Create_users</title>
<polygon fill="none" stroke="black" points="428,-490 330,-490 330,-454 428,-454 428,-490"/>
<text text-anchor="middle" x="379" y="-469.1" font-family="Courier,monospace" font-size="11.00">Create_users</text>
</g>
<!-- \\View_Welcome_404 -->
<g id="node9" class="node"><title>\\View_Welcome_404</title>
<polygon fill="none" stroke="black" points="441,-430 317,-430 317,-394 441,-394 441,-430"/>
<text text-anchor="middle" x="379" y="-409.1" font-family="Courier,monospace" font-size="11.00">View_Welcome_404</text>
</g>
<!-- \\ViewModel -->
<g id="node18" class="node"><title>\\ViewModel</title>
<ellipse fill="none" stroke="black" cx="119" cy="-371" rx="70.9184" ry="18.3848"/>
<text text-anchor="middle" x="119" y="-367.4" font-family="Times Roman,serif" font-size="14.00" fill="gray">\ViewModel</text>
</g>
<!-- \\View_Welcome_404&#45;&gt;\\ViewModel -->
<g id="edge6" class="edge"><title>\\View_Welcome_404&#45;&gt;\\ViewModel</title>
<path fill="none" stroke="black" d="M316.393,-402.127C278.242,-396.111 229.387,-388.407 189.827,-382.169"/>
<polygon fill="none" stroke="black" points="190.143,-378.676 179.72,-380.575 189.053,-385.59 190.143,-378.676"/>
</g>
<!-- \\View_Welcome_Hello -->
<g id="node10" class="node"><title>\\View_Welcome_Hello</title>
<polygon fill="none" stroke="black" points="448,-376 310,-376 310,-340 448,-340 448,-376"/>
<text text-anchor="middle" x="379" y="-355.1" font-family="Courier,monospace" font-size="11.00">View_Welcome_Hello</text>
</g>
<!-- \\View_Welcome_Hello&#45;&gt;\\ViewModel -->
<g id="edge8" class="edge"><title>\\View_Welcome_Hello&#45;&gt;\\ViewModel</title>
<path fill="none" stroke="black" d="M309.666,-361.467C275.848,-363.158 234.969,-365.202 199.749,-366.963"/>
<polygon fill="none" stroke="black" points="199.31,-363.48 189.497,-367.475 199.659,-370.471 199.31,-363.48"/>
</g>
<!-- \\Model_Message -->
<g id="node11" class="node"><title>\\Model_Message</title>
<polygon fill="none" stroke="black" points="431,-322 327,-322 327,-286 431,-286 431,-322"/>
<text text-anchor="middle" x="379" y="-301.1" font-family="Courier,monospace" font-size="11.00">Model_Message</text>
</g>
<!-- \\Model_Crud -->
<g id="node21" class="node"><title>\\Model_Crud</title>
<ellipse fill="none" stroke="black" cx="119" cy="-290" rx="77.7817" ry="18.3848"/>
<text text-anchor="middle" x="119" y="-286.4" font-family="Times Roman,serif" font-size="14.00" fill="gray">\Model_Crud</text>
</g>
<!-- \\Model_Message&#45;&gt;\\Model_Crud -->
<g id="edge10" class="edge"><title>\\Model_Message&#45;&gt;\\Model_Crud</title>
<path fill="none" stroke="black" d="M326.698,-301.184C291.975,-299.314 245.571,-296.815 205.432,-294.654"/>
<polygon fill="none" stroke="black" points="205.547,-291.155 195.374,-294.112 205.171,-298.145 205.547,-291.155"/>
</g>
<!-- \\Model_User -->
<g id="node12" class="node"><title>\\Model_User</title>
<polygon fill="none" stroke="black" points="421,-268 337,-268 337,-232 421,-232 421,-268"/>
<text text-anchor="middle" x="379" y="-247.1" font-family="Courier,monospace" font-size="11.00">Model_User</text>
</g>
<!-- \\Model_User&#45;&gt;\\Model_Crud -->
<g id="edge12" class="edge"><title>\\Model_User&#45;&gt;\\Model_Crud</title>
<path fill="none" stroke="black" d="M336.938,-256.471C298.442,-262.394 240.58,-271.295 194.149,-278.439"/>
<polygon fill="none" stroke="black" points="193.477,-275.001 184.125,-279.981 194.541,-281.919 193.477,-275.001"/>
</g>
<!-- \\Controller_Welcome -->
<g id="node13" class="node"><title>\\Controller_Welcome</title>
<polygon fill="none" stroke="black" points="448,-214 310,-214 310,-178 448,-178 448,-214"/>
<text text-anchor="middle" x="379" y="-193.1" font-family="Courier,monospace" font-size="11.00">Controller_Welcome</text>
</g>
<!-- \\Controller -->
<g id="node24" class="node"><title>\\Controller</title>
<ellipse fill="none" stroke="black" cx="119" cy="-196" rx="67.1751" ry="18.3848"/>
<text text-anchor="middle" x="119" y="-192.4" font-family="Times Roman,serif" font-size="14.00" fill="gray">\Controller</text>
</g>
<!-- \\Controller_Welcome&#45;&gt;\\Controller -->
<g id="edge14" class="edge"><title>\\Controller_Welcome&#45;&gt;\\Controller</title>
<path fill="none" stroke="black" d="M309.666,-196C274.889,-196 232.646,-196 196.769,-196"/>
<polygon fill="none" stroke="black" points="196.344,-192.5 186.343,-196 196.343,-199.5 196.344,-192.5"/>
</g>
<!-- \\Controller_Message -->
<g id="node14" class="node"><title>\\Controller_Message</title>
<polygon fill="none" stroke="black" points="448,-160 310,-160 310,-124 448,-124 448,-160"/>
<text text-anchor="middle" x="379" y="-139.1" font-family="Courier,monospace" font-size="11.00">Controller_Message</text>
</g>
<!-- \\Controller_Template -->
<g id="node26" class="node"><title>\\Controller_Template</title>
<ellipse fill="none" stroke="black" cx="119" cy="-88" rx="118.794" ry="18.3848"/>
<text text-anchor="middle" x="119" y="-84.4" font-family="Times Roman,serif" font-size="14.00" fill="gray">\Controller_Template</text>
</g>
<!-- \\Controller_Message&#45;&gt;\\Controller_Template -->
<g id="edge16" class="edge"><title>\\Controller_Message&#45;&gt;\\Controller_Template</title>
<path fill="none" stroke="black" d="M309.666,-127.6C275.703,-120.546 234.618,-112.013 199.296,-104.677"/>
<polygon fill="none" stroke="black" points="200,-101.248 189.497,-102.642 198.576,-108.102 200,-101.248"/>
</g>
<!-- \\Controller_Main -->
<g id="node15" class="node"><title>\\Controller_Main</title>
<polygon fill="none" stroke="black" points="438,-106 320,-106 320,-70 438,-70 438,-106"/>
<text text-anchor="middle" x="379" y="-85.1" font-family="Courier,monospace" font-size="11.00">Controller_Main</text>
</g>
<!-- \\Controller_Main&#45;&gt;\\Controller_Template -->
<g id="edge18" class="edge"><title>\\Controller_Main&#45;&gt;\\Controller_Template</title>
<path fill="none" stroke="black" d="M319.677,-88C298.337,-88 273.347,-88 248.387,-88"/>
<polygon fill="none" stroke="black" points="248.081,-84.5001 238.081,-88 248.081,-91.5001 248.081,-84.5001"/>
</g>
<!-- \\Controller_Admin -->
<g id="node16" class="node"><title>\\Controller_Admin</title>
<polygon fill="none" stroke="black" points="441,-52 317,-52 317,-16 441,-16 441,-52"/>
<text text-anchor="middle" x="379" y="-31.1" font-family="Courier,monospace" font-size="11.00">Controller_Admin</text>
</g>
<!-- \\Controller_Admin&#45;&gt;\\Controller_Template -->
<g id="edge20" class="edge"><title>\\Controller_Admin&#45;&gt;\\Controller_Template</title>
<path fill="none" stroke="black" d="M316.393,-47.0031C281.219,-54.3083 236.948,-63.5031 199.25,-71.3327"/>
<polygon fill="none" stroke="black" points="198.392,-67.9362 189.312,-73.3967 199.815,-74.79 198.392,-67.9362"/>
</g>
</g>
</svg>
